<?xml version="1.0" encoding="UTF-8"?>
<!DOCTYPE svg PUBLIC "-//W3C//DTD SVG 1.1//EN" "http://www.w3.org/Graphics/SVG/1.1/DTD/svg11.dtd">
<svg xmlns="http://www.w3.org/2000/svg" version="1.1" width="16px" height="16px" style="shape-rendering:geometricPrecision; text-rendering:geometricPrecision; image-rendering:optimizeQuality; fill-rule:evenodd; clip-rule:evenodd" xmlns:xlink="http://www.w3.org/1999/xlink">
<g><path style="opacity:0.741" fill="#fec478" d="M 1.5,-0.5 C 2.16667,-0.5 2.83333,-0.5 3.5,-0.5C 3.19,2.7131 3.52333,5.7131 4.5,8.5C 5.16667,8.5 5.83333,8.5 6.5,8.5C 6.5,8.83333 6.5,9.16667 6.5,9.5C 4.70848,9.63404 3.04181,9.30071 1.5,8.5C 1.5,5.5 1.5,2.5 1.5,-0.5 Z"/></g>
<g><path style="opacity:1" fill="#b9bd73" d="M 10.5,4.5 C 9.83333,4.5 9.16667,4.5 8.5,4.5C 7.5041,4.58577 6.67076,4.25244 6,3.5C 5.61553,5.19657 5.78219,6.86324 6.5,8.5C 5.83333,8.5 5.16667,8.5 4.5,8.5C 4.5,6.5 4.5,4.5 4.5,2.5C 7.08209,2.02539 9.08209,2.69206 10.5,4.5 Z"/></g>
<g><path style="opacity:1" fill="#f8d298" d="M 3.5,-0.5 C 3.83333,-0.5 4.16667,-0.5 4.5,-0.5C 4.79106,0.649106 5.62439,1.31577 7,1.5C 8.37561,1.31577 9.20894,0.649106 9.5,-0.5C 10.1667,-0.5 10.8333,-0.5 11.5,-0.5C 12.9418,0.819534 13.6085,2.4862 13.5,4.5C 12.5,4.5 11.5,4.5 10.5,4.5C 9.08209,2.69206 7.08209,2.02539 4.5,2.5C 4.5,4.5 4.5,6.5 4.5,8.5C 3.52333,5.7131 3.19,2.7131 3.5,-0.5 Z"/></g>
<g><path style="opacity:1" fill="#ffdaaa" d="M 4.5,-0.5 C 6.16667,-0.5 7.83333,-0.5 9.5,-0.5C 9.20894,0.649106 8.37561,1.31577 7,1.5C 5.62439,1.31577 4.79106,0.649106 4.5,-0.5 Z"/></g>
<g><path style="opacity:0.72" fill="#87cc92" d="M 8.5,5.5 C 8.5,5.16667 8.5,4.83333 8.5,4.5C 9.16667,4.5 9.83333,4.5 10.5,4.5C 11.5,4.5 12.5,4.5 13.5,4.5C 14.1667,4.5 14.8333,4.5 15.5,4.5C 15.5,7.83333 15.5,11.1667 15.5,14.5C 15.1667,14.5 14.8333,14.5 14.5,14.5C 14.5,12.5 14.5,10.5 14.5,8.5C 14.5,7.5 14.5,6.5 14.5,5.5C 12.5,5.5 10.5,5.5 8.5,5.5 Z"/></g>
<g><path style="opacity:1" fill="#d5cd90" d="M 8.5,4.5 C 8.5,4.83333 8.5,5.16667 8.5,5.5C 7.83333,8.16667 7.16667,10.8333 6.5,13.5C 6.5,13.1667 6.5,12.8333 6.5,12.5C 6.5,11.5 6.5,10.5 6.5,9.5C 6.5,9.16667 6.5,8.83333 6.5,8.5C 5.78219,6.86324 5.61553,5.19657 6,3.5C 6.67076,4.25244 7.5041,4.58577 8.5,4.5 Z"/></g>
<g><path style="opacity:1" fill="#58acc0" d="M 8.5,5.5 C 10.5,5.5 12.5,5.5 14.5,5.5C 14.5,6.5 14.5,7.5 14.5,8.5C 13.8333,8.5 13.1667,8.5 12.5,8.5C 11.1667,8.5 9.83333,8.5 8.5,8.5C 8.5,7.5 8.5,6.5 8.5,5.5 Z"/></g>
<g><path style="opacity:0.949" fill="#fda22b" d="M 1.5,8.5 C 3.04181,9.30071 4.70848,9.63404 6.5,9.5C 6.5,10.5 6.5,11.5 6.5,12.5C 4.5,12.1667 2.5,11.8333 0.5,11.5C 0.262695,10.209 0.596028,9.20895 1.5,8.5 Z"/></g>
<g><path style="opacity:1" fill="#baaf4f" d="M 12.5,8.5 C 13.1667,8.5 13.8333,8.5 14.5,8.5C 14.5,10.5 14.5,12.5 14.5,14.5C 13.8333,14.5 13.1667,14.5 12.5,14.5C 12.5,12.5 12.5,10.5 12.5,8.5 Z"/></g>
<g><path style="opacity:1" fill="#5eac74" d="M 8.5,8.5 C 9.83333,8.5 11.1667,8.5 12.5,8.5C 12.5,10.5 12.5,12.5 12.5,14.5C 11.1667,14.5 9.83333,14.5 8.5,14.5C 8.5,12.5 8.5,10.5 8.5,8.5 Z"/></g>
<g><path style="opacity:0.929" fill="#d48317" d="M -0.5,11.5 C -0.166667,11.5 0.166667,11.5 0.5,11.5C 2.5,11.8333 4.5,12.1667 6.5,12.5C 6.5,12.8333 6.5,13.1667 6.5,13.5C 6.83333,14.1667 7.16667,14.8333 7.5,15.5C 4.83333,15.5 2.16667,15.5 -0.5,15.5C -0.5,14.1667 -0.5,12.8333 -0.5,11.5 Z"/></g>
<g><path style="opacity:1" fill="#60bd75" d="M 8.5,5.5 C 8.5,6.5 8.5,7.5 8.5,8.5C 8.5,10.5 8.5,12.5 8.5,14.5C 9.83333,14.5 11.1667,14.5 12.5,14.5C 13.1667,14.5 13.8333,14.5 14.5,14.5C 14.8333,14.5 15.1667,14.5 15.5,14.5C 15.5,14.8333 15.5,15.1667 15.5,15.5C 12.8333,15.5 10.1667,15.5 7.5,15.5C 7.16667,14.8333 6.83333,14.1667 6.5,13.5C 7.16667,10.8333 7.83333,8.16667 8.5,5.5 Z"/></g>
</svg>
